# xmcd
#
# Track frame offsets: 
#        150
#        11575
#        24320
#        32943
#        47324
#        56339
#        70921
#        86059
#        96157
#        108920
#        119501
#        134814
#
# Disc length: 1959 seconds
#
# Revision: 0
# Processed by: cddbd v1.5.2PL0 Copyright (c) Steve Scherf et al.
# Submitted via: ExactAudioCopy v1.3
#
DISCID=9d07a50c
DTITLE=Gene Stuart - Gene Stuart. Once Again
DYEAR=1900
DGENRE=Ballad
TTITLE0=The Little White Washed Chimney
TTITLE1=Cross The Brazos
TTITLE2=time To Bum Again
TTITLE3=Birth Place donegal
TTITLE4=Once Again
TTITLE5=Omagh In Tyrone
TTITLE6=Dyane
TTITLE7=If We Never Meet Again
TTITLE8=It's Time To Cross That Bridge
TTITLE9=Bring Back The Waltzes
TTITLE10=I'll Be Home In The Morning
TTITLE11=An Old Fashioned Girl
EXTD=
EXTT0=
EXTT1=
EXTT2=
EXTT3=
EXTT4=
EXTT5=
EXTT6=
EXTT7=
EXTT8=
EXTT9=
EXTT10=
EXTT11=
PLAYORDER=
